<svg xmlns="http://www.w3.org/2000/svg" xmlns:xlink="http://www.w3.org/1999/xlink" width="500" zoomAndPan="magnify" viewBox="0 0 375 374.999991" height="500" preserveAspectRatio="xMidYMid meet" version="1.0"><defs><g/><clipPath id="bfb813361e"><path d="M 7.359375 7.644531 L 367.359375 7.644531 L 367.359375 367.644531 L 7.359375 367.644531 Z M 7.359375 7.644531 " clip-rule="nonzero"/></clipPath><clipPath id="81782ef760"><path d="M 20.898438 21.933594 L 352.398438 21.933594 L 352.398438 353.433594 L 20.898438 353.433594 Z M 20.898438 21.933594 " clip-rule="nonzero"/></clipPath><clipPath id="6b77212f6c"><path d="M 131.777344 118.339844 L 228.527344 118.339844 L 228.527344 217.339844 L 131.777344 217.339844 Z M 131.777344 118.339844 " clip-rule="nonzero"/></clipPath></defs><rect x="-37.5" width="450" fill="#ffffff" y="-37.499999" height="449.999989" fill-opacity="1"/><rect x="-37.5" width="450" fill="#ffffff" y="-37.499999" height="449.999989" fill-opacity="1"/><rect x="-37.5" width="450" fill="#ffffff" y="-37.499999" height="449.999989" fill-opacity="1"/><g clip-path="url(#bfb813361e)"><path fill="#2c6d92" d="M 187.359375 367.644531 C 88.136719 367.644531 7.359375 286.867188 7.359375 187.644531 C 7.359375 88.421875 88.136719 7.644531 187.359375 7.644531 C 286.578125 7.644531 367.359375 88.421875 367.359375 187.644531 C 367.359375 286.867188 286.578125 367.644531 187.359375 367.644531 Z M 187.359375 10.304688 C 89.554688 10.304688 10.019531 89.839844 10.019531 187.644531 C 10.019531 285.449219 89.554688 364.984375 187.359375 364.984375 C 285.160156 364.984375 364.699219 285.449219 364.699219 187.644531 C 364.699219 89.839844 285.160156 10.304688 187.359375 10.304688 Z M 187.359375 10.304688 " fill-opacity="1" fill-rule="nonzero"/></g><g clip-path="url(#81782ef760)"><path fill="#2c6d92" d="M 303.867188 70.46875 C 272.574219 39.171875 230.9375 21.933594 186.648438 21.933594 C 95.289062 21.933594 20.898438 96.257812 20.898438 187.683594 C 20.898438 279.113281 95.222656 353.433594 186.648438 353.433594 C 278.078125 353.433594 352.398438 279.113281 352.398438 187.683594 C 352.398438 143.398438 335.160156 101.761719 303.867188 70.46875 Z M 303.867188 70.46875 " fill-opacity="1" fill-rule="nonzero"/></g><g fill="#ffbd59" fill-opacity="1"><g transform="translate(43.341016, 218.258892)"><g><path d="M 80.503906 -45.390625 C 80.503906 -51.933594 79.171875 -57.941406 76.765625 -63.550781 C 74.363281 -69.15625 71.027344 -73.964844 66.886719 -77.96875 C 62.613281 -81.972656 57.675781 -85.042969 52.066406 -87.3125 C 46.328125 -89.582031 40.1875 -90.785156 33.777344 -90.785156 L 10.011719 -90.785156 L 10.011719 0 L 33.777344 0 C 40.1875 0 46.328125 -1.066406 52.066406 -3.335938 C 57.675781 -5.605469 62.613281 -8.8125 66.886719 -12.816406 C 71.027344 -16.820312 74.363281 -21.496094 76.765625 -27.101562 C 79.171875 -32.710938 80.503906 -38.71875 80.503906 -45.390625 Z M 71.425781 -45.390625 C 71.425781 -34.980469 67.6875 -26.300781 60.480469 -19.492188 C 53.269531 -12.683594 44.457031 -9.34375 34.042969 -9.34375 L 19.359375 -9.34375 L 19.359375 -81.441406 L 34.042969 -81.441406 C 44.457031 -81.441406 53.269531 -77.96875 60.480469 -71.292969 C 67.6875 -64.351562 71.425781 -55.671875 71.425781 -45.390625 Z M 71.425781 -45.390625 "/></g></g></g><g fill="#ffbd59" fill-opacity="1"><g transform="translate(138.391791, 218.258892)"><g/></g></g><g fill="#ffbd59" fill-opacity="1"><g transform="translate(182.981603, 218.258892)"><g/></g></g><g fill="#ffbd59" fill-opacity="1"><g transform="translate(227.559758, 218.258892)"><g><path d="M 99.597656 -42.457031 L 52.335938 -42.457031 L 52.335938 -34.3125 L 89.183594 -34.3125 C 86.378906 -26.433594 81.707031 -20.027344 75.03125 -15.351562 C 68.355469 -10.546875 60.878906 -8.277344 52.734375 -8.277344 C 42.320312 -8.277344 33.511719 -11.882812 26.167969 -19.226562 C 18.957031 -26.566406 15.351562 -35.511719 15.351562 -45.792969 C 15.351562 -56.074219 18.957031 -64.882812 26.300781 -72.226562 C 33.511719 -79.4375 42.320312 -83.175781 52.734375 -83.175781 C 60.480469 -83.175781 67.554688 -80.90625 73.828125 -76.5 C 80.238281 -72.09375 84.777344 -66.351562 87.714844 -59.011719 L 97.59375 -59.011719 C 94.523438 -69.023438 88.78125 -77.035156 80.503906 -83.175781 C 72.226562 -89.316406 62.613281 -92.519531 51.800781 -92.519531 C 45.925781 -92.519531 40.1875 -91.1875 34.578125 -88.78125 C 28.835938 -86.378906 23.898438 -83.042969 19.625 -78.769531 C 15.351562 -74.496094 12.015625 -69.558594 9.613281 -63.949219 C 7.210938 -58.210938 6.007812 -52.066406 6.007812 -45.660156 C 6.007812 -39.25 7.210938 -33.109375 9.613281 -27.503906 C 12.015625 -21.761719 15.351562 -16.820312 19.625 -12.550781 C 23.898438 -8.277344 28.835938 -4.941406 34.578125 -2.535156 C 40.1875 -0.132812 46.328125 1.066406 52.734375 1.066406 C 63.683594 1.066406 73.5625 -2.402344 82.375 -9.480469 C 91.1875 -16.6875 96.660156 -25.765625 98.660156 -36.847656 Z M 99.597656 -42.457031 "/></g></g></g><g fill="#ffffff" fill-opacity="1"><g transform="translate(50.492627, 255.630672)"><g><path d="M 4.109375 -15.578125 L 4.109375 -1.703125 L 6.578125 -1.703125 C 6.992188 -1.703125 7.320312 -1.707031 7.5625 -1.71875 C 7.800781 -1.726562 8.097656 -1.765625 8.453125 -1.828125 C 8.804688 -1.898438 9.097656 -2.003906 9.328125 -2.140625 C 9.609375 -2.296875 9.859375 -2.492188 10.078125 -2.734375 C 10.296875 -2.984375 10.476562 -3.226562 10.625 -3.46875 C 10.769531 -3.707031 10.890625 -4.007812 10.984375 -4.375 C 11.085938 -4.75 11.160156 -5.070312 11.203125 -5.34375 C 11.253906 -5.625 11.289062 -5.988281 11.3125 -6.4375 C 11.34375 -6.894531 11.359375 -7.25 11.359375 -7.5 C 11.359375 -7.757812 11.359375 -8.140625 11.359375 -8.640625 C 11.359375 -9.140625 11.359375 -9.515625 11.359375 -9.765625 C 11.359375 -10.023438 11.34375 -10.382812 11.3125 -10.84375 C 11.289062 -11.300781 11.253906 -11.664062 11.203125 -11.9375 C 11.160156 -12.207031 11.085938 -12.523438 10.984375 -12.890625 C 10.890625 -13.265625 10.769531 -13.570312 10.625 -13.8125 C 10.476562 -14.050781 10.296875 -14.289062 10.078125 -14.53125 C 9.859375 -14.78125 9.609375 -14.988281 9.328125 -15.15625 C 9.097656 -15.28125 8.804688 -15.375 8.453125 -15.4375 C 8.097656 -15.507812 7.800781 -15.550781 7.5625 -15.5625 C 7.320312 -15.570312 6.992188 -15.578125 6.578125 -15.578125 Z M 2.203125 -17.28125 L 6.578125 -17.28125 C 7.796875 -17.28125 8.726562 -17.1875 9.375 -17 C 10.125 -16.78125 10.765625 -16.410156 11.296875 -15.890625 C 11.828125 -15.378906 12.242188 -14.785156 12.546875 -14.109375 C 12.765625 -13.609375 12.929688 -13.003906 13.046875 -12.296875 C 13.160156 -11.597656 13.222656 -11.015625 13.234375 -10.546875 C 13.253906 -10.078125 13.265625 -9.441406 13.265625 -8.640625 C 13.265625 -7.835938 13.253906 -7.203125 13.234375 -6.734375 C 13.222656 -6.273438 13.160156 -5.691406 13.046875 -4.984375 C 12.929688 -4.285156 12.765625 -3.679688 12.546875 -3.171875 C 12.242188 -2.492188 11.828125 -1.894531 11.296875 -1.375 C 10.765625 -0.863281 10.125 -0.5 9.375 -0.28125 C 8.726562 -0.09375 7.796875 0 6.578125 0 L 2.203125 0 Z M 2.203125 -17.28125 "/></g></g></g><g fill="#ffffff" fill-opacity="1"><g transform="translate(63.796269, 255.630672)"><g><path d="M 9.140625 -10.796875 C 8.578125 -11.441406 7.765625 -11.765625 6.703125 -11.765625 C 5.648438 -11.765625 4.84375 -11.441406 4.28125 -10.796875 C 4.0625 -10.546875 3.882812 -10.265625 3.75 -9.953125 C 3.613281 -9.640625 3.519531 -9.273438 3.46875 -8.859375 C 3.414062 -8.441406 3.382812 -8.09375 3.375 -7.8125 C 3.363281 -7.53125 3.359375 -7.128906 3.359375 -6.609375 C 3.359375 -6.085938 3.363281 -5.6875 3.375 -5.40625 C 3.382812 -5.125 3.414062 -4.769531 3.46875 -4.34375 C 3.519531 -3.925781 3.613281 -3.5625 3.75 -3.25 C 3.882812 -2.9375 4.0625 -2.65625 4.28125 -2.40625 C 4.84375 -1.757812 5.648438 -1.4375 6.703125 -1.4375 C 7.765625 -1.4375 8.578125 -1.757812 9.140625 -2.40625 C 9.359375 -2.65625 9.535156 -2.9375 9.671875 -3.25 C 9.804688 -3.5625 9.898438 -3.925781 9.953125 -4.34375 C 10.003906 -4.769531 10.035156 -5.125 10.046875 -5.40625 C 10.066406 -5.6875 10.078125 -6.085938 10.078125 -6.609375 C 10.078125 -7.128906 10.066406 -7.53125 10.046875 -7.8125 C 10.035156 -8.09375 10.003906 -8.441406 9.953125 -8.859375 C 9.898438 -9.273438 9.804688 -9.640625 9.671875 -9.953125 C 9.535156 -10.265625 9.359375 -10.546875 9.140625 -10.796875 Z M 4.515625 -12.984375 C 5.171875 -13.265625 5.898438 -13.40625 6.703125 -13.40625 C 7.515625 -13.40625 8.25 -13.265625 8.90625 -12.984375 C 9.570312 -12.703125 10.113281 -12.328125 10.53125 -11.859375 C 10.851562 -11.503906 11.113281 -11.117188 11.3125 -10.703125 C 11.519531 -10.285156 11.660156 -9.816406 11.734375 -9.296875 C 11.816406 -8.773438 11.863281 -8.34375 11.875 -8 C 11.894531 -7.664062 11.90625 -7.195312 11.90625 -6.59375 C 11.90625 -6 11.894531 -5.53125 11.875 -5.1875 C 11.863281 -4.851562 11.816406 -4.425781 11.734375 -3.90625 C 11.660156 -3.394531 11.519531 -2.925781 11.3125 -2.5 C 11.113281 -2.082031 10.851562 -1.695312 10.53125 -1.34375 C 10.113281 -0.875 9.570312 -0.5 8.90625 -0.21875 C 8.25 0.0625 7.515625 0.203125 6.703125 0.203125 C 5.898438 0.203125 5.171875 0.0625 4.515625 -0.21875 C 3.859375 -0.5 3.316406 -0.875 2.890625 -1.34375 C 2.566406 -1.695312 2.304688 -2.082031 2.109375 -2.5 C 1.910156 -2.925781 1.769531 -3.394531 1.6875 -3.90625 C 1.613281 -4.425781 1.566406 -4.851562 1.546875 -5.1875 C 1.535156 -5.53125 1.53125 -6 1.53125 -6.59375 C 1.53125 -7.195312 1.535156 -7.664062 1.546875 -8 C 1.566406 -8.34375 1.613281 -8.773438 1.6875 -9.296875 C 1.769531 -9.816406 1.910156 -10.285156 2.109375 -10.703125 C 2.304688 -11.117188 2.566406 -11.503906 2.890625 -11.859375 C 3.316406 -12.328125 3.859375 -12.703125 4.515625 -12.984375 Z M 4.515625 -12.984375 "/></g></g></g><g fill="#ffffff" fill-opacity="1"><g transform="translate(75.671905, 255.630672)"><g><path d="M 1.828125 -13.203125 L 3.65625 -13.203125 L 3.65625 -5.578125 C 3.65625 -4.484375 3.71875 -3.75 3.84375 -3.375 C 4.050781 -2.738281 4.40625 -2.253906 4.90625 -1.921875 C 5.414062 -1.597656 6 -1.4375 6.65625 -1.4375 C 7.3125 -1.4375 7.890625 -1.597656 8.390625 -1.921875 C 8.898438 -2.253906 9.253906 -2.738281 9.453125 -3.375 C 9.578125 -3.75 9.640625 -4.484375 9.640625 -5.578125 L 9.640625 -13.203125 L 11.46875 -13.203125 L 11.46875 -5.453125 C 11.46875 -5.023438 11.460938 -4.691406 11.453125 -4.453125 C 11.453125 -4.222656 11.425781 -3.9375 11.375 -3.59375 C 11.320312 -3.257812 11.242188 -2.953125 11.140625 -2.671875 C 10.796875 -1.742188 10.234375 -1.03125 9.453125 -0.53125 C 8.679688 -0.0390625 7.742188 0.203125 6.640625 0.203125 C 5.546875 0.203125 4.609375 -0.0390625 3.828125 -0.53125 C 3.054688 -1.03125 2.5 -1.742188 2.15625 -2.671875 C 2.050781 -2.953125 1.972656 -3.257812 1.921875 -3.59375 C 1.878906 -3.9375 1.851562 -4.222656 1.84375 -4.453125 C 1.832031 -4.691406 1.828125 -5.023438 1.828125 -5.453125 Z M 1.828125 -13.203125 "/></g></g></g><g fill="#ffffff" fill-opacity="1"><g transform="translate(87.42549, 255.630672)"><g><path d="M 11.109375 0 L 9.28125 0 L 9.28125 -7.78125 C 9.28125 -8.28125 9.273438 -8.644531 9.265625 -8.875 C 9.253906 -9.113281 9.222656 -9.367188 9.171875 -9.640625 C 9.128906 -9.921875 9.054688 -10.160156 8.953125 -10.359375 C 8.742188 -10.796875 8.421875 -11.140625 7.984375 -11.390625 C 7.554688 -11.640625 7.070312 -11.765625 6.53125 -11.765625 C 5.988281 -11.765625 5.5 -11.640625 5.0625 -11.390625 C 4.632812 -11.140625 4.316406 -10.796875 4.109375 -10.359375 C 4.003906 -10.160156 3.925781 -9.921875 3.875 -9.640625 C 3.832031 -9.367188 3.804688 -9.113281 3.796875 -8.875 C 3.785156 -8.644531 3.78125 -8.28125 3.78125 -7.78125 L 3.78125 0 L 1.953125 0 L 1.953125 -13.203125 L 3.78125 -13.203125 L 3.78125 -11.859375 C 4.675781 -12.890625 5.710938 -13.40625 6.890625 -13.40625 C 7.703125 -13.40625 8.410156 -13.21875 9.015625 -12.84375 C 9.628906 -12.476562 10.101562 -11.96875 10.4375 -11.3125 C 10.863281 -11.96875 11.398438 -12.476562 12.046875 -12.84375 C 12.703125 -13.21875 13.425781 -13.40625 14.21875 -13.40625 C 15.101562 -13.40625 15.894531 -13.164062 16.59375 -12.6875 C 17.289062 -12.21875 17.796875 -11.570312 18.109375 -10.75 C 18.210938 -10.46875 18.285156 -10.15625 18.328125 -9.8125 C 18.378906 -9.46875 18.410156 -9.175781 18.421875 -8.9375 C 18.429688 -8.695312 18.4375 -8.347656 18.4375 -7.890625 L 18.4375 0 L 16.609375 0 L 16.609375 -7.78125 C 16.609375 -8.28125 16.601562 -8.644531 16.59375 -8.875 C 16.582031 -9.113281 16.550781 -9.367188 16.5 -9.640625 C 16.457031 -9.921875 16.382812 -10.160156 16.28125 -10.359375 C 16.070312 -10.796875 15.75 -11.140625 15.3125 -11.390625 C 14.875 -11.640625 14.382812 -11.765625 13.84375 -11.765625 C 13.3125 -11.765625 12.828125 -11.640625 12.390625 -11.390625 C 11.960938 -11.140625 11.640625 -10.796875 11.421875 -10.359375 C 11.328125 -10.160156 11.253906 -9.921875 11.203125 -9.640625 C 11.160156 -9.367188 11.132812 -9.113281 11.125 -8.875 C 11.113281 -8.644531 11.109375 -8.28125 11.109375 -7.78125 Z M 11.109375 0 "/></g></g></g><g fill="#ffffff" fill-opacity="1"><g transform="translate(106.135995, 255.630672)"><g><path d="M 7.265625 -13.40625 C 8.097656 -13.40625 8.847656 -13.222656 9.515625 -12.859375 C 10.191406 -12.503906 10.722656 -12.035156 11.109375 -11.453125 C 11.515625 -10.828125 11.773438 -10.148438 11.890625 -9.421875 C 12.015625 -8.703125 12.078125 -7.757812 12.078125 -6.59375 C 12.078125 -5.4375 12.015625 -4.5 11.890625 -3.78125 C 11.773438 -3.0625 11.515625 -2.390625 11.109375 -1.765625 C 10.722656 -1.171875 10.191406 -0.691406 9.515625 -0.328125 C 8.847656 0.0234375 8.097656 0.203125 7.265625 0.203125 C 5.898438 0.203125 4.738281 -0.332031 3.78125 -1.40625 L 3.78125 0 L 1.953125 0 L 1.953125 -18.265625 L 3.78125 -18.265625 L 3.78125 -11.796875 C 4.738281 -12.867188 5.898438 -13.40625 7.265625 -13.40625 Z M 9.515625 -10.578125 C 8.941406 -11.367188 8.109375 -11.765625 7.015625 -11.765625 C 5.929688 -11.765625 5.097656 -11.367188 4.515625 -10.578125 C 4.203125 -10.148438 4 -9.632812 3.90625 -9.03125 C 3.820312 -8.425781 3.78125 -7.613281 3.78125 -6.59375 C 3.78125 -5.582031 3.820312 -4.773438 3.90625 -4.171875 C 4 -3.566406 4.203125 -3.054688 4.515625 -2.640625 C 5.097656 -1.835938 5.929688 -1.4375 7.015625 -1.4375 C 8.109375 -1.4375 8.941406 -1.835938 9.515625 -2.640625 C 9.828125 -3.054688 10.023438 -3.566406 10.109375 -4.171875 C 10.203125 -4.773438 10.25 -5.582031 10.25 -6.59375 C 10.25 -7.613281 10.203125 -8.425781 10.109375 -9.03125 C 10.023438 -9.632812 9.828125 -10.148438 9.515625 -10.578125 Z M 9.515625 -10.578125 "/></g></g></g><g fill="#ffffff" fill-opacity="1"><g transform="translate(118.194714, 255.630672)"><g><path d="M 2.09375 -17.1875 C 2.3125 -17.40625 2.585938 -17.515625 2.921875 -17.515625 C 3.265625 -17.515625 3.539062 -17.40625 3.75 -17.1875 C 3.96875 -16.976562 4.078125 -16.707031 4.078125 -16.375 C 4.078125 -16.039062 3.96875 -15.765625 3.75 -15.546875 C 3.539062 -15.328125 3.265625 -15.21875 2.921875 -15.21875 C 2.585938 -15.21875 2.3125 -15.328125 2.09375 -15.546875 C 1.882812 -15.765625 1.78125 -16.039062 1.78125 -16.375 C 1.78125 -16.707031 1.882812 -16.976562 2.09375 -17.1875 Z M 3.84375 0 L 2.015625 0 L 2.015625 -13.203125 L 3.84375 -13.203125 Z M 3.84375 0 "/></g></g></g><g fill="#ffffff" fill-opacity="1"><g transform="translate(122.503174, 255.630672)"><g><path d="M 3.046875 -3.921875 C 3.046875 -3.222656 3.273438 -2.632812 3.734375 -2.15625 C 4.203125 -1.675781 4.847656 -1.4375 5.671875 -1.4375 C 6.335938 -1.4375 6.929688 -1.597656 7.453125 -1.921875 C 7.972656 -2.253906 8.34375 -2.75 8.5625 -3.40625 C 8.632812 -3.644531 8.6875 -3.914062 8.71875 -4.21875 C 8.757812 -4.53125 8.78125 -4.820312 8.78125 -5.09375 C 8.789062 -5.363281 8.796875 -5.8125 8.796875 -6.4375 L 7.015625 -6.4375 C 5.847656 -6.4375 5.078125 -6.378906 4.703125 -6.265625 C 4.171875 -6.097656 3.757812 -5.804688 3.46875 -5.390625 C 3.1875 -4.972656 3.046875 -4.484375 3.046875 -3.921875 Z M 10.625 -7.953125 L 10.625 0 L 8.796875 0 L 8.796875 -1.40625 C 7.859375 -0.332031 6.738281 0.203125 5.4375 0.203125 C 4.195312 0.203125 3.179688 -0.1875 2.390625 -0.96875 C 1.609375 -1.757812 1.21875 -2.742188 1.21875 -3.921875 C 1.21875 -4.796875 1.46875 -5.570312 1.96875 -6.25 C 2.46875 -6.9375 3.175781 -7.414062 4.09375 -7.6875 C 4.363281 -7.769531 4.660156 -7.832031 4.984375 -7.875 C 5.304688 -7.914062 5.585938 -7.9375 5.828125 -7.9375 C 6.078125 -7.945312 6.453125 -7.953125 6.953125 -7.953125 L 8.796875 -7.953125 C 8.796875 -8.597656 8.785156 -9.0625 8.765625 -9.34375 C 8.742188 -9.625 8.6875 -9.882812 8.59375 -10.125 C 8.382812 -10.664062 8.039062 -11.070312 7.5625 -11.34375 C 7.082031 -11.625 6.535156 -11.765625 5.921875 -11.765625 C 5.015625 -11.765625 3.941406 -11.46875 2.703125 -10.875 L 2.015625 -12.390625 C 3.492188 -13.066406 4.796875 -13.40625 5.921875 -13.40625 C 7.003906 -13.40625 7.953125 -13.144531 8.765625 -12.625 C 9.578125 -12.101562 10.128906 -11.359375 10.421875 -10.390625 C 10.554688 -9.953125 10.625 -9.140625 10.625 -7.953125 Z M 10.625 -7.953125 "/></g></g></g><g fill="#ffffff" fill-opacity="1"><g transform="translate(133.4024, 255.630672)"><g/></g></g><g fill="#ffffff" fill-opacity="1"><g transform="translate(139.053424, 255.630672)"><g><path d="M 2.203125 0 L 2.203125 -17.28125 L 4.109375 -17.28125 L 9.125 -7.046875 L 14.140625 -17.28125 L 16.046875 -17.28125 L 16.046875 0 L 14.140625 0 L 14.140625 -13.703125 L 9.984375 -5.140625 L 8.25 -5.140625 L 4.109375 -13.703125 L 4.109375 0 Z M 2.203125 0 "/></g></g></g><g fill="#ffffff" fill-opacity="1"><g transform="translate(155.737878, 255.630672)"><g><path d="M 3.046875 -3.921875 C 3.046875 -3.222656 3.273438 -2.632812 3.734375 -2.15625 C 4.203125 -1.675781 4.847656 -1.4375 5.671875 -1.4375 C 6.335938 -1.4375 6.929688 -1.597656 7.453125 -1.921875 C 7.972656 -2.253906 8.34375 -2.75 8.5625 -3.40625 C 8.632812 -3.644531 8.6875 -3.914062 8.71875 -4.21875 C 8.757812 -4.53125 8.78125 -4.820312 8.78125 -5.09375 C 8.789062 -5.363281 8.796875 -5.8125 8.796875 -6.4375 L 7.015625 -6.4375 C 5.847656 -6.4375 5.078125 -6.378906 4.703125 -6.265625 C 4.171875 -6.097656 3.757812 -5.804688 3.46875 -5.390625 C 3.1875 -4.972656 3.046875 -4.484375 3.046875 -3.921875 Z M 10.625 -7.953125 L 10.625 0 L 8.796875 0 L 8.796875 -1.40625 C 7.859375 -0.332031 6.738281 0.203125 5.4375 0.203125 C 4.195312 0.203125 3.179688 -0.1875 2.390625 -0.96875 C 1.609375 -1.757812 1.21875 -2.742188 1.21875 -3.921875 C 1.21875 -4.796875 1.46875 -5.570312 1.96875 -6.25 C 2.46875 -6.9375 3.175781 -7.414062 4.09375 -7.6875 C 4.363281 -7.769531 4.660156 -7.832031 4.984375 -7.875 C 5.304688 -7.914062 5.585938 -7.9375 5.828125 -7.9375 C 6.078125 -7.945312 6.453125 -7.953125 6.953125 -7.953125 L 8.796875 -7.953125 C 8.796875 -8.597656 8.785156 -9.0625 8.765625 -9.34375 C 8.742188 -9.625 8.6875 -9.882812 8.59375 -10.125 C 8.382812 -10.664062 8.039062 -11.070312 7.5625 -11.34375 C 7.082031 -11.625 6.535156 -11.765625 5.921875 -11.765625 C 5.015625 -11.765625 3.941406 -11.46875 2.703125 -10.875 L 2.015625 -12.390625 C 3.492188 -13.066406 4.796875 -13.40625 5.921875 -13.40625 C 7.003906 -13.40625 7.953125 -13.144531 8.765625 -12.625 C 9.578125 -12.101562 10.128906 -11.359375 10.421875 -10.390625 C 10.554688 -9.953125 10.625 -9.140625 10.625 -7.953125 Z M 10.625 -7.953125 "/></g></g></g><g fill="#ffffff" fill-opacity="1"><g transform="translate(166.637105, 255.630672)"><g><path d="M 7.140625 -13.40625 C 8.046875 -13.40625 8.863281 -13.164062 9.59375 -12.6875 C 10.332031 -12.207031 10.875 -11.539062 11.21875 -10.6875 C 11.34375 -10.394531 11.429688 -10.0625 11.484375 -9.6875 C 11.546875 -9.3125 11.578125 -8.992188 11.578125 -8.734375 C 11.585938 -8.484375 11.59375 -8.113281 11.59375 -7.625 L 11.59375 0 L 9.765625 0 L 9.765625 -7.5 C 9.765625 -8.28125 9.75 -8.84375 9.71875 -9.1875 C 9.6875 -9.53125 9.597656 -9.863281 9.453125 -10.1875 C 9.222656 -10.6875 8.867188 -11.070312 8.390625 -11.34375 C 7.910156 -11.625 7.367188 -11.765625 6.765625 -11.765625 C 6.171875 -11.765625 5.632812 -11.625 5.15625 -11.34375 C 4.675781 -11.070312 4.328125 -10.6875 4.109375 -10.1875 C 3.953125 -9.863281 3.859375 -9.53125 3.828125 -9.1875 C 3.796875 -8.84375 3.78125 -8.28125 3.78125 -7.5 L 3.78125 0 L 1.953125 0 L 1.953125 -13.203125 L 3.78125 -13.203125 L 3.78125 -11.8125 C 4.738281 -12.875 5.859375 -13.40625 7.140625 -13.40625 Z M 7.140625 -13.40625 "/></g></g></g><g fill="#ffffff" fill-opacity="1"><g transform="translate(178.512741, 255.630672)"><g><path d="M 3.046875 -3.921875 C 3.046875 -3.222656 3.273438 -2.632812 3.734375 -2.15625 C 4.203125 -1.675781 4.847656 -1.4375 5.671875 -1.4375 C 6.335938 -1.4375 6.929688 -1.597656 7.453125 -1.921875 C 7.972656 -2.253906 8.34375 -2.75 8.5625 -3.40625 C 8.632812 -3.644531 8.6875 -3.914062 8.71875 -4.21875 C 8.757812 -4.53125 8.78125 -4.820312 8.78125 -5.09375 C 8.789062 -5.363281 8.796875 -5.8125 8.796875 -6.4375 L 7.015625 -6.4375 C 5.847656 -6.4375 5.078125 -6.378906 4.703125 -6.265625 C 4.171875 -6.097656 3.757812 -5.804688 3.46875 -5.390625 C 3.1875 -4.972656 3.046875 -4.484375 3.046875 -3.921875 Z M 10.625 -7.953125 L 10.625 0 L 8.796875 0 L 8.796875 -1.40625 C 7.859375 -0.332031 6.738281 0.203125 5.4375 0.203125 C 4.195312 0.203125 3.179688 -0.1875 2.390625 -0.96875 C 1.609375 -1.757812 1.21875 -2.742188 1.21875 -3.921875 C 1.21875 -4.796875 1.46875 -5.570312 1.96875 -6.25 C 2.46875 -6.9375 3.175781 -7.414062 4.09375 -7.6875 C 4.363281 -7.769531 4.660156 -7.832031 4.984375 -7.875 C 5.304688 -7.914062 5.585938 -7.9375 5.828125 -7.9375 C 6.078125 -7.945312 6.453125 -7.953125 6.953125 -7.953125 L 8.796875 -7.953125 C 8.796875 -8.597656 8.785156 -9.0625 8.765625 -9.34375 C 8.742188 -9.625 8.6875 -9.882812 8.59375 -10.125 C 8.382812 -10.664062 8.039062 -11.070312 7.5625 -11.34375 C 7.082031 -11.625 6.535156 -11.765625 5.921875 -11.765625 C 5.015625 -11.765625 3.941406 -11.46875 2.703125 -10.875 L 2.015625 -12.390625 C 3.492188 -13.066406 4.796875 -13.40625 5.921875 -13.40625 C 7.003906 -13.40625 7.953125 -13.144531 8.765625 -12.625 C 9.578125 -12.101562 10.128906 -11.359375 10.421875 -10.390625 C 10.554688 -9.953125 10.625 -9.140625 10.625 -7.953125 Z M 10.625 -7.953125 "/></g></g></g><g fill="#ffffff" fill-opacity="1"><g transform="translate(189.411968, 255.630672)"><g><path d="M 6.34375 -13.40625 C 7.707031 -13.40625 8.867188 -12.867188 9.828125 -11.796875 L 9.828125 -13.203125 L 11.65625 -13.203125 L 11.65625 -1.359375 C 11.65625 0.078125 11.59375 1.046875 11.46875 1.546875 C 11.15625 2.742188 10.53125 3.65625 9.59375 4.28125 C 8.65625 4.90625 7.570312 5.21875 6.34375 5.21875 C 5.039062 5.21875 3.675781 4.921875 2.25 4.328125 L 2.859375 2.78125 C 4.128906 3.3125 5.289062 3.578125 6.34375 3.578125 C 7.195312 3.578125 7.921875 3.367188 8.515625 2.953125 C 9.109375 2.535156 9.5 1.925781 9.6875 1.125 C 9.78125 0.726562 9.828125 -0.113281 9.828125 -1.40625 C 8.867188 -0.332031 7.707031 0.203125 6.34375 0.203125 C 5.519531 0.203125 4.769531 0.0234375 4.09375 -0.328125 C 3.414062 -0.691406 2.882812 -1.171875 2.5 -1.765625 C 2.09375 -2.390625 1.828125 -3.0625 1.703125 -3.78125 C 1.585938 -4.5 1.53125 -5.4375 1.53125 -6.59375 C 1.53125 -7.757812 1.585938 -8.703125 1.703125 -9.421875 C 1.828125 -10.148438 2.09375 -10.828125 2.5 -11.453125 C 2.882812 -12.035156 3.414062 -12.503906 4.09375 -12.859375 C 4.769531 -13.222656 5.519531 -13.40625 6.34375 -13.40625 Z M 9.09375 -10.578125 C 8.519531 -11.367188 7.6875 -11.765625 6.59375 -11.765625 C 5.5 -11.765625 4.664062 -11.367188 4.09375 -10.578125 C 3.78125 -10.148438 3.578125 -9.632812 3.484375 -9.03125 C 3.398438 -8.425781 3.359375 -7.613281 3.359375 -6.59375 C 3.359375 -5.582031 3.398438 -4.773438 3.484375 -4.171875 C 3.578125 -3.566406 3.78125 -3.054688 4.09375 -2.640625 C 4.664062 -1.835938 5.5 -1.4375 6.59375 -1.4375 C 7.6875 -1.4375 8.519531 -1.835938 9.09375 -2.640625 C 9.40625 -3.054688 9.601562 -3.566406 9.6875 -4.171875 C 9.78125 -4.773438 9.828125 -5.582031 9.828125 -6.59375 C 9.828125 -7.613281 9.78125 -8.425781 9.6875 -9.03125 C 9.601562 -9.632812 9.40625 -10.148438 9.09375 -10.578125 Z M 9.09375 -10.578125 "/></g></g></g><g fill="#ffffff" fill-opacity="1"><g transform="translate(201.470686, 255.630672)"><g><path d="M 6.71875 0.203125 C 5.769531 0.203125 4.929688 0.0234375 4.203125 -0.328125 C 3.484375 -0.679688 2.910156 -1.171875 2.484375 -1.796875 C 2.179688 -2.222656 1.957031 -2.734375 1.8125 -3.328125 C 1.664062 -3.921875 1.582031 -4.421875 1.5625 -4.828125 C 1.539062 -5.242188 1.53125 -5.835938 1.53125 -6.609375 C 1.53125 -7.234375 1.535156 -7.707031 1.546875 -8.03125 C 1.554688 -8.351562 1.59375 -8.742188 1.65625 -9.203125 C 1.726562 -9.660156 1.835938 -10.078125 1.984375 -10.453125 C 2.316406 -11.347656 2.882812 -12.0625 3.6875 -12.59375 C 4.488281 -13.132812 5.414062 -13.40625 6.46875 -13.40625 C 7.5 -13.40625 8.421875 -13.132812 9.234375 -12.59375 C 10.046875 -12.050781 10.625 -11.332031 10.96875 -10.4375 C 11.175781 -9.925781 11.300781 -9.414062 11.34375 -8.90625 C 11.382812 -8.394531 11.40625 -7.628906 11.40625 -6.609375 L 11.40625 -6.21875 L 3.359375 -6.21875 C 3.359375 -5.6875 3.363281 -5.257812 3.375 -4.9375 C 3.394531 -4.613281 3.457031 -4.222656 3.5625 -3.765625 C 3.675781 -3.316406 3.835938 -2.945312 4.046875 -2.65625 C 4.609375 -1.84375 5.5 -1.4375 6.71875 -1.4375 C 7.800781 -1.4375 8.960938 -1.734375 10.203125 -2.328125 L 10.90625 -0.8125 C 9.457031 -0.132812 8.0625 0.203125 6.71875 0.203125 Z M 9.578125 -7.734375 C 9.566406 -8.660156 9.453125 -9.394531 9.234375 -9.9375 C 9.015625 -10.5 8.65625 -10.941406 8.15625 -11.265625 C 7.664062 -11.597656 7.101562 -11.765625 6.46875 -11.765625 C 5.8125 -11.765625 5.242188 -11.597656 4.765625 -11.265625 C 4.285156 -10.941406 3.9375 -10.503906 3.71875 -9.953125 C 3.5 -9.378906 3.382812 -8.640625 3.375 -7.734375 Z M 9.578125 -7.734375 "/></g></g></g><g fill="#ffffff" fill-opacity="1"><g transform="translate(212.797098, 255.630672)"><g><path d="M 11.109375 0 L 9.28125 0 L 9.28125 -7.78125 C 9.28125 -8.28125 9.273438 -8.644531 9.265625 -8.875 C 9.253906 -9.113281 9.222656 -9.367188 9.171875 -9.640625 C 9.128906 -9.921875 9.054688 -10.160156 8.953125 -10.359375 C 8.742188 -10.796875 8.421875 -11.140625 7.984375 -11.390625 C 7.554688 -11.640625 7.070312 -11.765625 6.53125 -11.765625 C 5.988281 -11.765625 5.5 -11.640625 5.0625 -11.390625 C 4.632812 -11.140625 4.316406 -10.796875 4.109375 -10.359375 C 4.003906 -10.160156 3.925781 -9.921875 3.875 -9.640625 C 3.832031 -9.367188 3.804688 -9.113281 3.796875 -8.875 C 3.785156 -8.644531 3.78125 -8.28125 3.78125 -7.78125 L 3.78125 0 L 1.953125 0 L 1.953125 -13.203125 L 3.78125 -13.203125 L 3.78125 -11.859375 C 4.675781 -12.890625 5.710938 -13.40625 6.890625 -13.40625 C 7.703125 -13.40625 8.410156 -13.21875 9.015625 -12.84375 C 9.628906 -12.476562 10.101562 -11.96875 10.4375 -11.3125 C 10.863281 -11.96875 11.398438 -12.476562 12.046875 -12.84375 C 12.703125 -13.21875 13.425781 -13.40625 14.21875 -13.40625 C 15.101562 -13.40625 15.894531 -13.164062 16.59375 -12.6875 C 17.289062 -12.21875 17.796875 -11.570312 18.109375 -10.75 C 18.210938 -10.46875 18.285156 -10.15625 18.328125 -9.8125 C 18.378906 -9.46875 18.410156 -9.175781 18.421875 -8.9375 C 18.429688 -8.695312 18.4375 -8.347656 18.4375 -7.890625 L 18.4375 0 L 16.609375 0 L 16.609375 -7.78125 C 16.609375 -8.28125 16.601562 -8.644531 16.59375 -8.875 C 16.582031 -9.113281 16.550781 -9.367188 16.5 -9.640625 C 16.457031 -9.921875 16.382812 -10.160156 16.28125 -10.359375 C 16.070312 -10.796875 15.75 -11.140625 15.3125 -11.390625 C 14.875 -11.640625 14.382812 -11.765625 13.84375 -11.765625 C 13.3125 -11.765625 12.828125 -11.640625 12.390625 -11.390625 C 11.960938 -11.140625 11.640625 -10.796875 11.421875 -10.359375 C 11.328125 -10.160156 11.253906 -9.921875 11.203125 -9.640625 C 11.160156 -9.367188 11.132812 -9.113281 11.125 -8.875 C 11.113281 -8.644531 11.109375 -8.28125 11.109375 -7.78125 Z M 11.109375 0 "/></g></g></g><g fill="#ffffff" fill-opacity="1"><g transform="translate(231.507603, 255.630672)"><g><path d="M 6.71875 0.203125 C 5.769531 0.203125 4.929688 0.0234375 4.203125 -0.328125 C 3.484375 -0.679688 2.910156 -1.171875 2.484375 -1.796875 C 2.179688 -2.222656 1.957031 -2.734375 1.8125 -3.328125 C 1.664062 -3.921875 1.582031 -4.421875 1.5625 -4.828125 C 1.539062 -5.242188 1.53125 -5.835938 1.53125 -6.609375 C 1.53125 -7.234375 1.535156 -7.707031 1.546875 -8.03125 C 1.554688 -8.351562 1.59375 -8.742188 1.65625 -9.203125 C 1.726562 -9.660156 1.835938 -10.078125 1.984375 -10.453125 C 2.316406 -11.347656 2.882812 -12.0625 3.6875 -12.59375 C 4.488281 -13.132812 5.414062 -13.40625 6.46875 -13.40625 C 7.5 -13.40625 8.421875 -13.132812 9.234375 -12.59375 C 10.046875 -12.050781 10.625 -11.332031 10.96875 -10.4375 C 11.175781 -9.925781 11.300781 -9.414062 11.34375 -8.90625 C 11.382812 -8.394531 11.40625 -7.628906 11.40625 -6.609375 L 11.40625 -6.21875 L 3.359375 -6.21875 C 3.359375 -5.6875 3.363281 -5.257812 3.375 -4.9375 C 3.394531 -4.613281 3.457031 -4.222656 3.5625 -3.765625 C 3.675781 -3.316406 3.835938 -2.945312 4.046875 -2.65625 C 4.609375 -1.84375 5.5 -1.4375 6.71875 -1.4375 C 7.800781 -1.4375 8.960938 -1.734375 10.203125 -2.328125 L 10.90625 -0.8125 C 9.457031 -0.132812 8.0625 0.203125 6.71875 0.203125 Z M 9.578125 -7.734375 C 9.566406 -8.660156 9.453125 -9.394531 9.234375 -9.9375 C 9.015625 -10.5 8.65625 -10.941406 8.15625 -11.265625 C 7.664062 -11.597656 7.101562 -11.765625 6.46875 -11.765625 C 5.8125 -11.765625 5.242188 -11.597656 4.765625 -11.265625 C 4.285156 -10.941406 3.9375 -10.503906 3.71875 -9.953125 C 3.5 -9.378906 3.382812 -8.640625 3.375 -7.734375 Z M 9.578125 -7.734375 "/></g></g></g><g fill="#ffffff" fill-opacity="1"><g transform="translate(242.834015, 255.630672)"><g><path d="M 7.140625 -13.40625 C 8.046875 -13.40625 8.863281 -13.164062 9.59375 -12.6875 C 10.332031 -12.207031 10.875 -11.539062 11.21875 -10.6875 C 11.34375 -10.394531 11.429688 -10.0625 11.484375 -9.6875 C 11.546875 -9.3125 11.578125 -8.992188 11.578125 -8.734375 C 11.585938 -8.484375 11.59375 -8.113281 11.59375 -7.625 L 11.59375 0 L 9.765625 0 L 9.765625 -7.5 C 9.765625 -8.28125 9.75 -8.84375 9.71875 -9.1875 C 9.6875 -9.53125 9.597656 -9.863281 9.453125 -10.1875 C 9.222656 -10.6875 8.867188 -11.070312 8.390625 -11.34375 C 7.910156 -11.625 7.367188 -11.765625 6.765625 -11.765625 C 6.171875 -11.765625 5.632812 -11.625 5.15625 -11.34375 C 4.675781 -11.070312 4.328125 -10.6875 4.109375 -10.1875 C 3.953125 -9.863281 3.859375 -9.53125 3.828125 -9.1875 C 3.796875 -8.84375 3.78125 -8.28125 3.78125 -7.5 L 3.78125 0 L 1.953125 0 L 1.953125 -13.203125 L 3.78125 -13.203125 L 3.78125 -11.8125 C 4.738281 -12.875 5.859375 -13.40625 7.140625 -13.40625 Z M 7.140625 -13.40625 "/></g></g></g><g fill="#ffffff" fill-opacity="1"><g transform="translate(254.709662, 255.630672)"><g><path d="M 2.3125 -3.703125 L 2.3125 -11.6875 L 0.484375 -11.6875 L 0.484375 -13.203125 L 2.3125 -13.203125 L 2.3125 -16.0625 L 4.15625 -16.0625 L 4.15625 -13.203125 L 6.59375 -13.203125 L 6.59375 -11.6875 L 4.15625 -11.6875 L 4.15625 -3.703125 C 4.15625 -2.816406 4.191406 -2.285156 4.265625 -2.109375 C 4.453125 -1.660156 4.800781 -1.4375 5.3125 -1.4375 C 5.726562 -1.4375 6.191406 -1.566406 6.703125 -1.828125 L 7.40625 -0.3125 C 6.625 0.03125 5.882812 0.203125 5.1875 0.203125 C 4.5 0.203125 3.914062 0.0351562 3.4375 -0.296875 C 2.957031 -0.640625 2.628906 -1.117188 2.453125 -1.734375 C 2.359375 -2.046875 2.3125 -2.703125 2.3125 -3.703125 Z M 2.3125 -3.703125 "/></g></g></g><g fill="#ffffff" fill-opacity="1"><g transform="translate(261.117415, 255.630672)"><g/></g></g><g fill="#ffffff" fill-opacity="1"><g transform="translate(266.768438, 255.630672)"><g><path d="M 7.546875 -17.515625 C 9.191406 -17.515625 10.710938 -17.023438 12.109375 -16.046875 L 11.140625 -14.578125 C 9.984375 -15.398438 8.785156 -15.8125 7.546875 -15.8125 C 5.847656 -15.8125 4.703125 -15.117188 4.109375 -13.734375 C 3.847656 -13.140625 3.675781 -12.4375 3.59375 -11.625 C 3.519531 -10.8125 3.484375 -9.816406 3.484375 -8.640625 C 3.484375 -7.472656 3.519531 -6.476562 3.59375 -5.65625 C 3.675781 -4.84375 3.847656 -4.140625 4.109375 -3.546875 C 4.703125 -2.171875 5.84375 -1.484375 7.53125 -1.484375 C 9.226562 -1.484375 10.378906 -2.171875 10.984375 -3.546875 C 11.347656 -4.359375 11.546875 -5.625 11.578125 -7.34375 L 7.90625 -7.34375 L 7.90625 -9.0625 L 13.5 -9.0625 C 13.5 -8.03125 13.488281 -7.234375 13.46875 -6.671875 C 13.445312 -6.117188 13.378906 -5.476562 13.265625 -4.75 C 13.148438 -4.03125 12.976562 -3.414062 12.75 -2.90625 C 12.320312 -1.9375 11.664062 -1.171875 10.78125 -0.609375 C 9.894531 -0.046875 8.816406 0.234375 7.546875 0.234375 C 6.285156 0.234375 5.207031 -0.046875 4.3125 -0.609375 C 3.425781 -1.171875 2.765625 -1.9375 2.328125 -2.90625 C 2.109375 -3.394531 1.9375 -3.988281 1.8125 -4.6875 C 1.695312 -5.394531 1.628906 -6.019531 1.609375 -6.5625 C 1.597656 -7.101562 1.59375 -7.796875 1.59375 -8.640625 C 1.59375 -9.941406 1.640625 -11.050781 1.734375 -11.96875 C 1.828125 -12.894531 2.023438 -13.695312 2.328125 -14.375 C 2.773438 -15.351562 3.441406 -16.117188 4.328125 -16.671875 C 5.222656 -17.234375 6.296875 -17.515625 7.546875 -17.515625 Z M 7.546875 -17.515625 "/></g></g></g><g fill="#ffffff" fill-opacity="1"><g transform="translate(280.303983, 255.630672)"><g><path d="M 3.78125 -11.8125 C 4.664062 -12.875 5.703125 -13.40625 6.890625 -13.40625 C 7.222656 -13.40625 7.597656 -13.359375 8.015625 -13.265625 L 7.75 -11.65625 C 7.238281 -11.726562 6.875 -11.765625 6.65625 -11.765625 C 6.03125 -11.765625 5.488281 -11.617188 5.03125 -11.328125 C 4.582031 -11.035156 4.253906 -10.640625 4.046875 -10.140625 C 3.867188 -9.710938 3.78125 -8.945312 3.78125 -7.84375 L 3.78125 0 L 1.953125 0 L 1.953125 -13.203125 L 3.78125 -13.203125 Z M 3.78125 -11.8125 "/></g></g></g><g fill="#ffffff" fill-opacity="1"><g transform="translate(287.26096, 255.630672)"><g><path d="M 9.140625 -10.796875 C 8.578125 -11.441406 7.765625 -11.765625 6.703125 -11.765625 C 5.648438 -11.765625 4.84375 -11.441406 4.28125 -10.796875 C 4.0625 -10.546875 3.882812 -10.265625 3.75 -9.953125 C 3.613281 -9.640625 3.519531 -9.273438 3.46875 -8.859375 C 3.414062 -8.441406 3.382812 -8.09375 3.375 -7.8125 C 3.363281 -7.53125 3.359375 -7.128906 3.359375 -6.609375 C 3.359375 -6.085938 3.363281 -5.6875 3.375 -5.40625 C 3.382812 -5.125 3.414062 -4.769531 3.46875 -4.34375 C 3.519531 -3.925781 3.613281 -3.5625 3.75 -3.25 C 3.882812 -2.9375 4.0625 -2.65625 4.28125 -2.40625 C 4.84375 -1.757812 5.648438 -1.4375 6.703125 -1.4375 C 7.765625 -1.4375 8.578125 -1.757812 9.140625 -2.40625 C 9.359375 -2.65625 9.535156 -2.9375 9.671875 -3.25 C 9.804688 -3.5625 9.898438 -3.925781 9.953125 -4.34375 C 10.003906 -4.769531 10.035156 -5.125 10.046875 -5.40625 C 10.066406 -5.6875 10.078125 -6.085938 10.078125 -6.609375 C 10.078125 -7.128906 10.066406 -7.53125 10.046875 -7.8125 C 10.035156 -8.09375 10.003906 -8.441406 9.953125 -8.859375 C 9.898438 -9.273438 9.804688 -9.640625 9.671875 -9.953125 C 9.535156 -10.265625 9.359375 -10.546875 9.140625 -10.796875 Z M 4.515625 -12.984375 C 5.171875 -13.265625 5.898438 -13.40625 6.703125 -13.40625 C 7.515625 -13.40625 8.25 -13.265625 8.90625 -12.984375 C 9.570312 -12.703125 10.113281 -12.328125 10.53125 -11.859375 C 10.851562 -11.503906 11.113281 -11.117188 11.3125 -10.703125 C 11.519531 -10.285156 11.660156 -9.816406 11.734375 -9.296875 C 11.816406 -8.773438 11.863281 -8.34375 11.875 -8 C 11.894531 -7.664062 11.90625 -7.195312 11.90625 -6.59375 C 11.90625 -6 11.894531 -5.53125 11.875 -5.1875 C 11.863281 -4.851562 11.816406 -4.425781 11.734375 -3.90625 C 11.660156 -3.394531 11.519531 -2.925781 11.3125 -2.5 C 11.113281 -2.082031 10.851562 -1.695312 10.53125 -1.34375 C 10.113281 -0.875 9.570312 -0.5 8.90625 -0.21875 C 8.25 0.0625 7.515625 0.203125 6.703125 0.203125 C 5.898438 0.203125 5.171875 0.0625 4.515625 -0.21875 C 3.859375 -0.5 3.316406 -0.875 2.890625 -1.34375 C 2.566406 -1.695312 2.304688 -2.082031 2.109375 -2.5 C 1.910156 -2.925781 1.769531 -3.394531 1.6875 -3.90625 C 1.613281 -4.425781 1.566406 -4.851562 1.546875 -5.1875 C 1.535156 -5.53125 1.53125 -6 1.53125 -6.59375 C 1.53125 -7.195312 1.535156 -7.664062 1.546875 -8 C 1.566406 -8.34375 1.613281 -8.773438 1.6875 -9.296875 C 1.769531 -9.816406 1.910156 -10.285156 2.109375 -10.703125 C 2.304688 -11.117188 2.566406 -11.503906 2.890625 -11.859375 C 3.316406 -12.328125 3.859375 -12.703125 4.515625 -12.984375 Z M 4.515625 -12.984375 "/></g></g></g><g fill="#ffffff" fill-opacity="1"><g transform="translate(299.136608, 255.630672)"><g><path d="M 1.828125 -13.203125 L 3.65625 -13.203125 L 3.65625 -5.578125 C 3.65625 -4.484375 3.71875 -3.75 3.84375 -3.375 C 4.050781 -2.738281 4.40625 -2.253906 4.90625 -1.921875 C 5.414062 -1.597656 6 -1.4375 6.65625 -1.4375 C 7.3125 -1.4375 7.890625 -1.597656 8.390625 -1.921875 C 8.898438 -2.253906 9.253906 -2.738281 9.453125 -3.375 C 9.578125 -3.75 9.640625 -4.484375 9.640625 -5.578125 L 9.640625 -13.203125 L 11.46875 -13.203125 L 11.46875 -5.453125 C 11.46875 -5.023438 11.460938 -4.691406 11.453125 -4.453125 C 11.453125 -4.222656 11.425781 -3.9375 11.375 -3.59375 C 11.320312 -3.257812 11.242188 -2.953125 11.140625 -2.671875 C 10.796875 -1.742188 10.234375 -1.03125 9.453125 -0.53125 C 8.679688 -0.0390625 7.742188 0.203125 6.640625 0.203125 C 5.546875 0.203125 4.609375 -0.0390625 3.828125 -0.53125 C 3.054688 -1.03125 2.5 -1.742188 2.15625 -2.671875 C 2.050781 -2.953125 1.972656 -3.257812 1.921875 -3.59375 C 1.878906 -3.9375 1.851562 -4.222656 1.84375 -4.453125 C 1.832031 -4.691406 1.828125 -5.023438 1.828125 -5.453125 Z M 1.828125 -13.203125 "/></g></g></g><g fill="#ffffff" fill-opacity="1"><g transform="translate(310.890193, 255.630672)"><g><path d="M 7.265625 -13.40625 C 8.097656 -13.40625 8.847656 -13.222656 9.515625 -12.859375 C 10.191406 -12.503906 10.722656 -12.035156 11.109375 -11.453125 C 11.515625 -10.828125 11.773438 -10.148438 11.890625 -9.421875 C 12.015625 -8.703125 12.078125 -7.757812 12.078125 -6.59375 C 12.078125 -5.4375 12.015625 -4.5 11.890625 -3.78125 C 11.773438 -3.0625 11.515625 -2.390625 11.109375 -1.765625 C 10.722656 -1.171875 10.191406 -0.691406 9.515625 -0.328125 C 8.847656 0.0234375 8.097656 0.203125 7.265625 0.203125 C 5.898438 0.203125 4.738281 -0.332031 3.78125 -1.40625 L 3.78125 5.046875 L 1.953125 5.046875 L 1.953125 -13.203125 L 3.78125 -13.203125 L 3.78125 -11.796875 C 4.738281 -12.867188 5.898438 -13.40625 7.265625 -13.40625 Z M 9.515625 -10.578125 C 8.941406 -11.367188 8.109375 -11.765625 7.015625 -11.765625 C 5.929688 -11.765625 5.097656 -11.367188 4.515625 -10.578125 C 4.203125 -10.148438 4 -9.632812 3.90625 -9.03125 C 3.820312 -8.425781 3.78125 -7.613281 3.78125 -6.59375 C 3.78125 -5.582031 3.820312 -4.773438 3.90625 -4.171875 C 4 -3.566406 4.203125 -3.054688 4.515625 -2.640625 C 5.097656 -1.835938 5.929688 -1.4375 7.015625 -1.4375 C 8.109375 -1.4375 8.941406 -1.835938 9.515625 -2.640625 C 9.828125 -3.054688 10.023438 -3.566406 10.109375 -4.171875 C 10.203125 -4.773438 10.25 -5.582031 10.25 -6.59375 C 10.25 -7.613281 10.203125 -8.425781 10.109375 -9.03125 C 10.023438 -9.632812 9.828125 -10.148438 9.515625 -10.578125 Z M 9.515625 -10.578125 "/></g></g></g><g clip-path="url(#6b77212f6c)"><path fill="#ffbd59" d="M 180.152344 181.574219 L 167.871094 161.835938 L 175.464844 161.835938 L 180.152344 169.367188 L 184.839844 161.835938 L 192.433594 161.835938 Z M 203.929688 217.363281 L 197.480469 217.363281 L 197.480469 180.71875 L 181.992188 204.203125 L 178.101562 204.203125 L 162.820312 181.03125 L 162.820312 217.363281 L 156.375 217.363281 L 156.375 161.835938 L 180.046875 195.441406 L 203.929688 161.523438 Z M 219.710938 217.363281 L 213.261719 217.363281 L 213.261719 161.835938 L 207.632812 156.019531 L 207.632812 131.8125 L 198.8125 131.8125 L 198.8125 146.90625 C 192.671875 140.554688 186.445312 134.121094 180.152344 127.621094 C 173.363281 134.640625 149.167969 159.636719 147.042969 161.835938 L 147.042969 217.363281 L 140.59375 217.363281 L 140.59375 168.230469 L 131.882812 168.230469 C 153.050781 146.355469 174.402344 124.300781 177.832031 120.75 L 180.148438 118.351562 L 182.46875 120.746094 C 184.847656 123.203125 188.789062 127.273438 192.363281 130.96875 L 192.363281 125.367188 L 214.082031 125.367188 L 214.082031 153.414062 L 228.417969 168.230469 L 219.710938 168.230469 L 219.710938 217.363281 " fill-opacity="1" fill-rule="nonzero"/></g></svg>